<svg xmlns="http://www.w3.org/2000/svg" version="1.1" xmlns:xlink="http://www.w3.org/1999/xlink" xmlns:svgjs="http://svgjs.dev/svgjs" width="1000" height="999" viewBox="0 0 1000 999"><g transform="matrix(1,0,0,1,-0.215743440233382,-0.21552769679306039)"><svg viewBox="0 0 343 343" data-background-color="#ffffff" preserveAspectRatio="xMidYMid meet" height="999" width="1000" xmlns="http://www.w3.org/2000/svg" xmlns:xlink="http://www.w3.org/1999/xlink"><g id="tight-bounds" transform="matrix(1,0,0,1,0.0740000000000407,0.07400000000001228)"><svg viewBox="0 0 342.85155851775386 342.85155851775386" height="342.85155851775386" width="342.85155851775386"><g><svg></svg></g><g><svg viewBox="0 0 342.85155851775386 342.85155851775386" height="342.85155851775386" width="342.85155851775386"><g><path d="M0 171.426c0-94.676 76.75-171.426 171.426-171.426 94.676 0 171.426 76.75 171.426 171.426 0 94.676-76.75 171.426-171.426 171.426-94.676 0-171.426-76.75-171.426-171.426zM171.426 334.177c89.885 0 162.751-72.866 162.751-162.751 0-89.885-72.866-162.751-162.751-162.752-89.885 0-162.751 72.866-162.752 162.752 0 89.885 72.866 162.751 162.752 162.751z" data-fill-palette-color="tertiary" fill="#ca3433" stroke="transparent"></path><ellipse rx="164.56874808852186" ry="164.56874808852186" cx="171.42577925887693" cy="171.42577925887693" fill="#ca3433" stroke="transparent" stroke-width="0" fill-opacity="1" data-fill-palette-color="tertiary"></ellipse></g><g transform="matrix(1,0,0,1,64.84655864529837,123.3315016992004)"><svg viewBox="0 0 213.1584412271571 96.18855511935305" height="96.18855511935305" width="213.1584412271571"><g><svg viewBox="0 0 213.1584412271571 96.18855511935305" height="96.18855511935305" width="213.1584412271571"><g><svg viewBox="0 0 213.1584412271571 96.18855511935305" height="96.18855511935305" width="213.1584412271571"><g><svg viewBox="0 0 213.1584412271571 96.18855511935305" height="96.18855511935305" width="213.1584412271571"><g id="textblocktransform"><svg viewBox="0 0 213.1584412271571 96.18855511935305" height="96.18855511935305" width="213.1584412271571" id="textblock"><g><svg viewBox="0 0 213.1584412271571 96.18855511935305" height="96.18855511935305" width="213.1584412271571"><g transform="matrix(1,0,0,1,0,0)"><svg width="213.1584412271571" viewBox="0.28166669607162476 -36.11000061035156 81.96833038330078 36.9900016784668" height="96.18855511935305" data-palette-color="#ffffff"><path d="M1.2 0.37Q0.73 0.32 0.49-0.05 0.24-0.42 0.29-0.85L0.29-0.85Q0.42-1.61 0.76-2.25 1.1-2.88 1.26-3.2 1.42-3.52 1.59-3.91L1.59-3.91 2.51-6.05 12.55-36.11 23.34-15.26 33.81-36.11 46.34 0 33.23 0 27.17-18.65 17.8 0.88 7.93-16.7 4.52-6.03Q3.71-4.25 3.37-3 3.03-1.76 2.81-1.07L2.81-1.07Q2.32 0.46 1.2 0.37L1.2 0.37ZM67.72-11.84L67.72-11.84 69.72-11.69Q74.02-11.69 77.02-14.7L77.02-14.7Q80.03-17.7 80.03-22.17L80.03-22.17Q80.03-28.03 74.88-30.86L74.88-30.86Q72.04-32.42 68.82-32.67L68.82-32.67Q67.45-32.79 66.28-32.79L66.28-32.79 64.62-32.79Q64.11-32.79 63.72-32.76L63.72-32.76 63.72 0 51.27 0 51.27-34.55Q56.98-34.55 60.52-34.55 64.06-34.55 65.13-34.52 66.21-34.5 67.05-34.46 67.89-34.42 68.63-34.38L68.63-34.38Q69.7-34.28 71.66-33.91 73.63-33.54 75.56-32.52 77.49-31.49 78.88-29.98L78.88-29.98Q81.88-26.76 81.88-22.31L81.88-22.31Q81.88-17.92 79.1-14.55L79.1-14.55Q76.24-11.11 71.48-10.11L71.48-10.11Q73.75-3.08 77.27-1.71L77.27-1.71Q78.34-1.29 79.42-1.29L79.42-1.29 81.35-1.76Q82.25-1.76 82.25-0.83L82.25-0.83Q82.25 0.46 79.22 0.46L79.22 0.46Q77.02 0.46 75.19-0.76L75.19-0.76Q72.34-2.47 70.33-7.4L70.33-7.4 69.63-9.13Q69.46-9.55 69.32-9.64 69.19-9.74 68.86-9.74 68.53-9.74 68.28-9.69L68.28-9.69 67.7-9.67Q66.72-9.67 66.37-10.03 66.01-10.4 66.01-10.79L66.01-10.79Q66.01-11.84 67.72-11.84Z" opacity="1" transform="matrix(1,0,0,1,0,0)" fill="#ffffff" class="undefined-text-0" data-fill-palette-color="quaternary" id="text-0"></path></svg></g></svg></g></svg></g></svg></g><g></g></svg></g></svg></g></svg></g></svg></g><defs></defs></svg><rect width="342.85155851775386" height="342.85155851775386" fill="none" stroke="none" visibility="hidden"></rect></g></svg></g></svg>